<svg width="15" height="12" viewBox="0 0 15 12" fill="none" xmlns="http://www.w3.org/2000/svg">
<path d="M1.27256 1.71846C2.32448 0.578067 3.91623 0 6.00282 0H6.75258V2.11358L6.14977 2.23429C5.1226 2.43973 4.40807 2.84385 4.02569 3.43691C3.82618 3.75641 3.71302 4.12223 3.6973 4.49858H6.00282C6.20167 4.49858 6.39237 4.57757 6.53298 4.71818C6.67359 4.85879 6.75258 5.04949 6.75258 5.24834V10.4967C6.75258 11.3237 6.08005 11.9962 5.25306 11.9962H0.754478C0.555628 11.9962 0.364923 11.9172 0.224315 11.7766C0.083707 11.636 0.00471438 11.4453 0.00471438 11.2464V7.49763L0.00696369 5.30907C0.000215821 5.22585 -0.142239 3.25397 1.27256 1.71846ZM13.5005 11.9962H9.00187C8.80302 11.9962 8.61232 11.9172 8.47171 11.7766C8.3311 11.636 8.25211 11.4453 8.25211 11.2464V7.49763L8.25436 5.30907C8.24761 5.22585 8.10516 3.25397 9.51996 1.71846C10.5719 0.578067 12.1636 0 14.2502 0H15V2.11358L14.3972 2.23429C13.37 2.43973 12.6555 2.84385 12.2731 3.43691C12.0736 3.75641 11.9604 4.12223 11.9447 4.49858H14.2502C14.4491 4.49858 14.6398 4.57757 14.7804 4.71818C14.921 4.85879 15 5.04949 15 5.24834V10.4967C15 11.3237 14.3274 11.9962 13.5005 11.9962Z" fill="#0A72AD"/>
</svg>
